<svg width="76" height="59" viewBox="0 0 76 59" fill="none" xmlns="http://www.w3.org/2000/svg">
<g filter="url(#filter0_d_116_2)">
<mask id="path-1-outside-1_116_2" maskUnits="userSpaceOnUse" x="1" y="0" width="68" height="48" fill="black">
<rect fill="white" x="1" width="68" height="48"/>
<path d="M39.2188 16.875C39.2188 18.5 39.0729 19.9792 38.7812 21.3125C38.5104 22.625 38.0729 23.8333 37.4688 24.9375C36.8646 26.0417 36.0833 27.0625 35.125 28C34.1667 28.9375 33.0104 29.8333 31.6562 30.6875L39.0938 43.9375L25.0312 46.6875L20.2188 33.375L16.3438 33.5L15.7812 46.5H2.34375C2.44792 41.75 2.54167 37.0208 2.625 32.3125C2.72917 27.6042 2.84375 22.875 2.96875 18.125C3.01042 15.7292 3.05208 13.3542 3.09375 11C3.13542 8.64583 3.21875 6.27083 3.34375 3.875C4.80208 3.33333 6.23958 2.88542 7.65625 2.53125C9.07292 2.17708 10.4896 1.90625 11.9062 1.71875C13.3438 1.51042 14.7917 1.375 16.25 1.3125C17.7292 1.22917 19.2396 1.1875 20.7812 1.1875C23.1562 1.1875 25.4479 1.52083 27.6562 2.1875C29.8854 2.83333 31.8542 3.8125 33.5625 5.125C35.2708 6.4375 36.6354 8.07292 37.6562 10.0312C38.6979 11.9896 39.2188 14.2708 39.2188 16.875ZM25.2188 17.875C25.2188 17 25.0938 16.1979 24.8438 15.4688C24.6146 14.7396 24.2604 14.1146 23.7812 13.5938C23.3229 13.0521 22.7396 12.6354 22.0312 12.3438C21.3438 12.0312 20.5312 11.875 19.5938 11.875C19.1771 11.875 18.7708 11.9062 18.375 11.9688C17.9792 12.0104 17.5938 12.0833 17.2188 12.1875L16.7188 23.8125H17.4688C18.3646 23.8125 19.2708 23.6979 20.1875 23.4688C21.125 23.2396 21.9583 22.8854 22.6875 22.4062C23.4375 21.9271 24.0417 21.3125 24.5 20.5625C24.9792 19.8125 25.2188 18.9167 25.2188 17.875Z"/>
<path d="M49.375 39.9375L49.3125 31.75L41.5 31.625L41.375 22.25L49.1875 22V14.625L58.875 13.625L59 21.5625L67.1875 21.3125L67.3125 32L59.125 31.875L59.25 40.0625L49.375 39.9375Z"/>
</mask>
<path d="M39.2188 16.875C39.2188 18.5 39.0729 19.9792 38.7812 21.3125C38.5104 22.625 38.0729 23.8333 37.4688 24.9375C36.8646 26.0417 36.0833 27.0625 35.125 28C34.1667 28.9375 33.0104 29.8333 31.6562 30.6875L39.0938 43.9375L25.0312 46.6875L20.2188 33.375L16.3438 33.5L15.7812 46.5H2.34375C2.44792 41.75 2.54167 37.0208 2.625 32.3125C2.72917 27.6042 2.84375 22.875 2.96875 18.125C3.01042 15.7292 3.05208 13.3542 3.09375 11C3.13542 8.64583 3.21875 6.27083 3.34375 3.875C4.80208 3.33333 6.23958 2.88542 7.65625 2.53125C9.07292 2.17708 10.4896 1.90625 11.9062 1.71875C13.3438 1.51042 14.7917 1.375 16.25 1.3125C17.7292 1.22917 19.2396 1.1875 20.7812 1.1875C23.1562 1.1875 25.4479 1.52083 27.6562 2.1875C29.8854 2.83333 31.8542 3.8125 33.5625 5.125C35.2708 6.4375 36.6354 8.07292 37.6562 10.0312C38.6979 11.9896 39.2188 14.2708 39.2188 16.875ZM25.2188 17.875C25.2188 17 25.0938 16.1979 24.8438 15.4688C24.6146 14.7396 24.2604 14.1146 23.7812 13.5938C23.3229 13.0521 22.7396 12.6354 22.0312 12.3438C21.3438 12.0312 20.5312 11.875 19.5938 11.875C19.1771 11.875 18.7708 11.9062 18.375 11.9688C17.9792 12.0104 17.5938 12.0833 17.2188 12.1875L16.7188 23.8125H17.4688C18.3646 23.8125 19.2708 23.6979 20.1875 23.4688C21.125 23.2396 21.9583 22.8854 22.6875 22.4062C23.4375 21.9271 24.0417 21.3125 24.5 20.5625C24.9792 19.8125 25.2188 18.9167 25.2188 17.875Z" fill="#F3F3F3"/>
<path d="M49.375 39.9375L49.3125 31.75L41.5 31.625L41.375 22.25L49.1875 22V14.625L58.875 13.625L59 21.5625L67.1875 21.3125L67.3125 32L59.125 31.875L59.25 40.0625L49.375 39.9375Z" fill="#FF4545"/>
<path d="M38.7812 21.3125L37.8043 21.0988L37.8019 21.1104L38.7812 21.3125ZM31.6562 30.6875L31.1227 29.8417L30.3192 30.3485L30.7842 31.177L31.6562 30.6875ZM39.0938 43.9375L39.2857 44.9189L40.6425 44.6536L39.9658 43.448L39.0938 43.9375ZM25.0312 46.6875L24.0908 47.0275L24.3822 47.8334L25.2232 47.6689L25.0312 46.6875ZM20.2188 33.375L21.1592 33.035L20.9123 32.3521L20.1865 32.3755L20.2188 33.375ZM16.3438 33.5L16.3115 32.5005L15.3848 32.5304L15.3447 33.4568L16.3438 33.5ZM15.7812 46.5V47.5H16.7389L16.7803 46.5432L15.7812 46.5ZM2.34375 46.5L1.34399 46.4781L1.32158 47.5H2.34375V46.5ZM2.625 32.3125L1.62523 32.2904L1.62516 32.2948L2.625 32.3125ZM2.96875 18.125L3.96844 18.1513L3.9686 18.1424L2.96875 18.125ZM3.34375 3.875L2.99556 2.93757L2.37936 3.16645L2.34511 3.8229L3.34375 3.875ZM11.9062 1.71875L12.0375 2.71018L12.0497 2.70841L11.9062 1.71875ZM16.25 1.3125L16.2928 2.31167L16.3062 2.31092L16.25 1.3125ZM27.6562 2.1875L27.3672 3.14489L27.378 3.148L27.6562 2.1875ZM33.5625 5.125L32.9533 5.91798L33.5625 5.125ZM37.6562 10.0312L36.7695 10.4935L36.7734 10.5009L37.6562 10.0312ZM24.8438 15.4688L23.8898 15.7686L23.8936 15.7809L23.8978 15.7931L24.8438 15.4688ZM23.7812 13.5938L23.0179 14.2397L23.0313 14.2555L23.0453 14.2708L23.7812 13.5938ZM22.0312 12.3438L21.6174 13.2541L21.6338 13.2616L21.6505 13.2684L22.0312 12.3438ZM18.375 11.9688L18.4797 12.9633L18.5054 12.9605L18.531 12.9565L18.375 11.9688ZM17.2188 12.1875L16.9511 11.224L16.2509 11.4185L16.2197 12.1445L17.2188 12.1875ZM16.7188 23.8125L15.7197 23.7695L15.6748 24.8125H16.7188V23.8125ZM20.1875 23.4688L19.95 22.4973L19.945 22.4986L20.1875 23.4688ZM22.6875 22.4062L22.1491 21.5635L22.1383 21.5705L22.6875 22.4062ZM24.5 20.5625L23.6573 20.0241L23.6519 20.0325L23.6467 20.041L24.5 20.5625ZM39.2188 16.875H38.2188C38.2188 18.4413 38.0781 19.8475 37.8044 21.0988L38.7812 21.3125L39.7581 21.5262C40.0677 20.1109 40.2188 18.5587 40.2188 16.875H39.2188ZM38.7812 21.3125L37.8019 21.1104C37.5498 22.332 37.145 23.4458 36.5915 24.4575L37.4688 24.9375L38.346 25.4175C39.0008 24.2208 39.471 22.918 39.7606 21.5146L38.7812 21.3125ZM37.4688 24.9375L36.5915 24.4575C36.0377 25.4696 35.318 26.4122 34.4257 27.2852L35.125 28L35.8243 28.7148C36.8486 27.7128 37.6915 26.6138 38.346 25.4175L37.4688 24.9375ZM35.125 28L34.4257 27.2852C33.5265 28.1649 32.4283 29.0182 31.1227 29.8417L31.6562 30.6875L32.1898 31.5333C33.5925 30.6485 34.8069 29.7101 35.8243 28.7148L35.125 28ZM31.6562 30.6875L30.7842 31.177L38.2217 44.427L39.0938 43.9375L39.9658 43.448L32.5283 30.198L31.6562 30.6875ZM39.0938 43.9375L38.9018 42.9561L24.8393 45.7061L25.0312 46.6875L25.2232 47.6689L39.2857 44.9189L39.0938 43.9375ZM25.0312 46.6875L25.9717 46.3475L21.1592 33.035L20.2188 33.375L19.2783 33.715L24.0908 47.0275L25.0312 46.6875ZM20.2188 33.375L20.1865 32.3755L16.3115 32.5005L16.3438 33.5L16.376 34.4995L20.251 34.3745L20.2188 33.375ZM16.3438 33.5L15.3447 33.4568L14.7822 46.4568L15.7812 46.5L16.7803 46.5432L17.3428 33.5432L16.3438 33.5ZM15.7812 46.5V45.5H2.34375V46.5V47.5H15.7812V46.5ZM2.34375 46.5L3.34351 46.5219C3.44771 41.7705 3.54148 37.04 3.62484 32.3302L2.625 32.3125L1.62516 32.2948C1.54185 37.0017 1.44813 41.7295 1.34399 46.4781L2.34375 46.5ZM2.625 32.3125L3.62476 32.3346C3.72889 27.6277 3.84344 22.8999 3.9684 18.1513L2.96875 18.125L1.9691 18.0987C1.84406 22.8501 1.72944 27.5806 1.62524 32.2904L2.625 32.3125ZM2.96875 18.125L3.9686 18.1424C4.01026 15.7467 4.05193 13.3718 4.09359 11.0177L3.09375 11L2.09391 10.9823C2.05224 13.3366 2.01057 15.7117 1.9689 18.1076L2.96875 18.125ZM3.09375 11L4.09359 11.0177C4.13505 8.67522 4.21798 6.31169 4.34239 3.9271L3.34375 3.875L2.34511 3.8229C2.21952 6.22998 2.13578 8.61645 2.09391 10.9823L3.09375 11ZM3.34375 3.875L3.69194 4.81243C5.11791 4.28278 6.52015 3.84605 7.89879 3.50139L7.65625 2.53125L7.41371 1.56111C5.95902 1.92478 4.48626 2.38389 2.99556 2.93757L3.34375 3.875ZM7.65625 2.53125L7.89879 3.50139C9.27957 3.1562 10.6591 2.89254 12.0375 2.7101L11.9062 1.71875L11.775 0.727395C10.3201 0.919963 8.86626 1.19797 7.41371 1.56111L7.65625 2.53125ZM11.9062 1.71875L12.0497 2.70841C13.4537 2.50494 14.868 2.37265 16.2928 2.31158L16.25 1.3125L16.2072 0.313417C14.7153 0.377353 13.2338 0.515898 11.7628 0.72909L11.9062 1.71875ZM16.25 1.3125L16.3062 2.31092C17.7659 2.22868 19.2576 2.1875 20.7812 2.1875V1.1875V0.1875C19.2216 0.1875 17.6924 0.229653 16.1938 0.314083L16.25 1.3125ZM20.7812 1.1875V2.1875C23.0613 2.1875 25.2554 2.50729 27.3672 3.14483L27.6562 2.1875L27.9453 1.23017C25.6404 0.534379 23.2512 0.1875 20.7812 0.1875V1.1875ZM27.6562 2.1875L27.378 3.148C29.4967 3.76183 31.3512 4.68717 32.9533 5.91798L33.5625 5.125L34.1717 4.33202C32.3571 2.93783 30.2742 1.90484 27.9345 1.227L27.6562 2.1875ZM33.5625 5.125L32.9533 5.91798C34.5432 7.13949 35.8142 8.66096 36.7695 10.4935L37.6562 10.0312L38.543 9.56901C37.4566 7.48488 35.9985 5.73551 34.1717 4.33202L33.5625 5.125ZM37.6562 10.0312L36.7734 10.5009C37.7258 12.2914 38.2188 14.4061 38.2188 16.875H39.2188H40.2188C40.2188 14.1356 39.6701 11.6878 38.5391 9.56164L37.6562 10.0312ZM25.2188 17.875H26.2188C26.2188 16.9044 26.08 15.991 25.7897 15.1444L24.8438 15.4688L23.8978 15.7931C24.1075 16.4048 24.2188 17.0956 24.2188 17.875H25.2188ZM24.8438 15.4688L25.7977 15.1689C25.5281 14.3109 25.1037 13.5542 24.5172 12.9167L23.7812 13.5938L23.0453 14.2708C23.4172 14.675 23.7011 15.1683 23.8898 15.7686L24.8438 15.4688ZM23.7812 13.5938L24.5446 12.9478C23.9748 12.2744 23.2563 11.7667 22.412 11.4191L22.0312 12.3438L21.6505 13.2684C22.2229 13.5041 22.671 13.8298 23.0179 14.2397L23.7812 13.5938ZM22.0312 12.3438L22.4451 11.4334C21.6002 11.0494 20.6405 10.875 19.5938 10.875V11.875V12.875C20.422 12.875 21.0873 13.0131 21.6174 13.2541L22.0312 12.3438ZM19.5938 11.875V10.875C19.1269 10.875 18.6685 10.91 18.219 10.981L18.375 11.9688L18.531 12.9565C18.8732 12.9025 19.2272 12.875 19.5938 12.875V11.875ZM18.375 11.9688L18.2703 10.9742C17.8206 11.0216 17.3807 11.1047 16.9511 11.224L17.2188 12.1875L17.4864 13.151C17.8068 13.062 18.1377 12.9993 18.4797 12.9633L18.375 11.9688ZM17.2188 12.1875L16.2197 12.1445L15.7197 23.7695L16.7188 23.8125L17.7178 23.8555L18.2178 12.2305L17.2188 12.1875ZM16.7188 23.8125V24.8125H17.4688V23.8125V22.8125H16.7188V23.8125ZM17.4688 23.8125V24.8125C18.4507 24.8125 19.4384 24.6868 20.43 24.4389L20.1875 23.4688L19.945 22.4986C19.1033 22.709 18.2785 22.8125 17.4688 22.8125V23.8125ZM20.1875 23.4688L20.425 24.4401C21.4616 24.1867 22.4025 23.7901 23.2367 23.242L22.6875 22.4062L22.1383 21.5705C21.5141 21.9807 20.7884 22.2924 19.95 22.4974L20.1875 23.4688ZM22.6875 22.4062L23.2259 23.2489C24.1022 22.6891 24.8147 21.9652 25.3533 21.084L24.5 20.5625L23.6467 20.041C23.2686 20.6598 22.7728 21.1651 22.1491 21.5636L22.6875 22.4062ZM24.5 20.5625L25.3427 21.1009C25.9411 20.1643 26.2188 19.0744 26.2188 17.875H25.2188H24.2188C24.2188 18.759 24.0173 19.4607 23.6573 20.0241L24.5 20.5625ZM49.375 39.9375L48.375 39.9451L48.3825 40.925L49.3623 40.9374L49.375 39.9375ZM49.3125 31.75L50.3125 31.7424L50.305 30.7658L49.3285 30.7501L49.3125 31.75ZM41.5 31.625L40.5001 31.6383L40.513 32.6093L41.484 32.6249L41.5 31.625ZM41.375 22.25L41.343 21.2505L40.362 21.2819L40.3751 22.2633L41.375 22.25ZM49.1875 22L49.2195 22.9995L50.1875 22.9685V22H49.1875ZM49.1875 14.625L49.0848 13.6303L48.1875 13.7229V14.625H49.1875ZM58.875 13.625L59.8749 13.6093L59.8577 12.5182L58.7723 12.6303L58.875 13.625ZM59 21.5625L58.0001 21.5782L58.0161 22.593L59.0305 22.562L59 21.5625ZM67.1875 21.3125L68.1874 21.3008L68.1755 20.2819L67.157 20.313L67.1875 21.3125ZM67.3125 32L67.2972 32.9999L68.3244 33.0156L68.3124 31.9883L67.3125 32ZM59.125 31.875L59.1403 30.8751L58.1094 30.8594L58.1251 31.8903L59.125 31.875ZM59.25 40.0625L59.2373 41.0624L60.2656 41.0754L60.2499 40.0472L59.25 40.0625ZM49.375 39.9375L50.375 39.9299L50.3125 31.7424L49.3125 31.75L48.3125 31.7576L48.375 39.9451L49.375 39.9375ZM49.3125 31.75L49.3285 30.7501L41.516 30.6251L41.5 31.625L41.484 32.6249L49.2965 32.7499L49.3125 31.75ZM41.5 31.625L42.4999 31.6117L42.3749 22.2367L41.375 22.25L40.3751 22.2633L40.5001 31.6383L41.5 31.625ZM41.375 22.25L41.407 23.2495L49.2195 22.9995L49.1875 22L49.1555 21.0005L41.343 21.2505L41.375 22.25ZM49.1875 22H50.1875V14.625H49.1875H48.1875V22H49.1875ZM49.1875 14.625L49.2902 15.6197L58.9777 14.6197L58.875 13.625L58.7723 12.6303L49.0848 13.6303L49.1875 14.625ZM58.875 13.625L57.8751 13.6407L58.0001 21.5782L59 21.5625L59.9999 21.5468L59.8749 13.6093L58.875 13.625ZM59 21.5625L59.0305 22.562L67.218 22.312L67.1875 21.3125L67.157 20.313L58.9695 20.563L59 21.5625ZM67.1875 21.3125L66.1876 21.3242L66.3126 32.0117L67.3125 32L68.3124 31.9883L68.1874 21.3008L67.1875 21.3125ZM67.3125 32L67.3278 31.0001L59.1403 30.8751L59.125 31.875L59.1097 32.8749L67.2972 32.9999L67.3125 32ZM59.125 31.875L58.1251 31.8903L58.2501 40.0778L59.25 40.0625L60.2499 40.0472L60.1249 31.8597L59.125 31.875ZM59.25 40.0625L59.2627 39.0626L49.3877 38.9376L49.375 39.9375L49.3623 40.9374L59.2373 41.0624L59.25 40.0625Z" fill="black" mask="url(#path-1-outside-1_116_2)"/>
</g>
<defs>
<filter id="filter0_d_116_2" x="0.321533" y="0.1875" width="75.0029" height="58.6459" filterUnits="userSpaceOnUse" color-interpolation-filters="sRGB">
<feFlood flood-opacity="0" result="BackgroundImageFix"/>
<feColorMatrix in="SourceAlpha" type="matrix" values="0 0 0 0 0 0 0 0 0 0 0 0 0 0 0 0 0 0 127 0" result="hardAlpha"/>
<feOffset dx="3" dy="7"/>
<feGaussianBlur stdDeviation="2"/>
<feComposite in2="hardAlpha" operator="out"/>
<feColorMatrix type="matrix" values="0 0 0 0 0 0 0 0 0 0 0 0 0 0 0 0 0 0 0.25 0"/>
<feBlend mode="normal" in2="BackgroundImageFix" result="effect1_dropShadow_116_2"/>
<feBlend mode="normal" in="SourceGraphic" in2="effect1_dropShadow_116_2" result="shape"/>
</filter>
</defs>
</svg>
